<?xml version="1.0" encoding="utf-8" ?>
<svg xmlns="http://www.w3.org/2000/svg" xmlns:xlink="http://www.w3.org/1999/xlink" width="216" height="64">
	<path fill="#FC262E" d="M49.6366 48.9363L50.1882 49.1576C50.2477 49.2737 50.3015 49.3979 50.3422 49.522C50.6105 50.3387 50.6494 57.7658 50.3685 58.3128C50.1745 58.6905 49.346 58.8456 48.9348 58.9896C48.7007 58.8384 48.3777 58.6951 48.2378 58.452C47.5072 57.1825 47.6746 51.8583 48.1273 50.291C48.3546 49.5039 48.9839 49.3075 49.6366 48.9363Z"/>
	<path fill="#FC262E" d="M57.7813 45.0005C58.7118 46.215 58.2372 49.7026 58.1877 51.3163C57.0136 52.221 55.5206 52.7059 54.3816 53.6279C52.9168 54.8137 54.4176 56.5402 53.8598 57.9002C53.5785 58.5862 53.0527 58.6848 52.4291 58.96C52.4192 58.9536 52.4092 58.9475 52.3995 58.941C52.2461 58.8373 51.8674 58.4949 51.7927 58.3324C51.1665 56.9687 51.9553 50.4632 51.4616 48.12L57.7813 45.0005ZM54.7414 48.382C54.1802 48.9004 53.8956 49.2346 53.7138 49.9999C53.8322 50.5961 53.8855 50.9711 54.4281 51.3403C54.5433 51.4186 54.6819 51.4706 54.8142 51.5112C55.3486 50.8395 55.5719 50.3222 55.733 49.4806L55.5339 48.7343C55.286 48.6074 55.016 48.4349 54.7414 48.382Z"/>
	<path fill="#2D2B2C" d="M200.16 51.8745C202.687 51.4154 205.79 51.7661 208.371 51.7887C209.167 52.8729 208.851 56.8701 208.751 58.1863L208.158 58.6252C205.644 59.035 202.388 58.6658 199.804 58.6501C200.67 57.2697 200.392 53.4885 200.16 51.8745Z"/>
	<path fill="#2D2B2C" d="M129.188 7.37444C131.814 6.93215 134.802 7.20089 137.474 7.19869Q137.482 7.34313 137.454 7.48505C137.199 8.7351 131.585 14.7533 130.354 15.5884C130.358 15.6574 130.356 15.7243 130.336 15.7909C130.121 16.5094 129.35 16.8823 128.75 17.2369Q126.147 17.2267 123.546 17.1205C125.318 15.6494 128.243 9.67331 129.188 7.37444Z"/>
	<path fill="#FC262E" d="M165.623 13.35C167.817 12.6233 172.761 9.09066 174.75 9.32383L175.003 9.74177C176.232 11.1393 178.186 14.0631 178.687 15.8624C179.083 16.3174 179.161 16.3643 179.185 16.9619C178.113 18.5477 172.32 20.8521 170.394 21.6663Q170.408 21.5509 170.403 21.4348C170.368 20.7286 166.194 13.8837 165.623 13.35Z"/>
	<path fill="#FC262E" d="M49.9203 45.6068C52.2272 44.2697 55.3733 42.0821 58.0457 41.8328L58.4901 42.0421C58.476 42.7256 57.6674 43.43 57.2005 43.8776C56.5084 44.5411 54.7457 45.4409 53.8084 45.6474C51.5401 46.9701 47.8613 47.9675 46.347 50.1041C46.8031 51.8269 46.9147 54.2141 46.8302 56.0076C46.7947 56.76 46.6412 57.9099 46.0518 58.4357C45.7085 58.742 45.53 58.6734 45.0985 58.65C42.7084 56.976 45.2688 52.498 44.1939 50.6233L43.7219 50.554C42.4775 51.9704 43.1256 55.0615 43.0369 56.8822C43.0048 57.541 42.8825 58.2271 42.3761 58.6916C41.6995 58.807 41.5417 58.6614 40.9561 58.3493Q40.9073 58.041 40.825 57.74C40.65 57.111 40.3299 56.5633 39.7463 56.2407C38.2139 55.3938 34.6395 55.6743 33.0252 56.3033C31.3561 56.9537 29.8488 58.0498 28.1217 58.5567C27.3121 58.7944 26.6101 58.8561 25.8416 58.4377L25.8861 58.0934C27.8143 56.6368 30.4061 55.6499 32.5589 54.539L46.2054 47.4254C47.4252 46.7801 48.6348 46.1142 49.9203 45.6068Z"/>
	<path fill="#2D2B2C" d="M144.826 15.823C147.9 15.099 152.516 13.2468 155.291 11.7325C155.428 11.9628 155.555 12.2291 155.627 12.4885C156.061 14.0432 156.111 19.0749 155.301 20.4837C157.188 20.5055 159.431 20.2565 161.239 20.7945C161.201 20.8719 161.157 20.9431 161.109 21.0146C160.648 21.7062 147.109 28.1939 145.748 28.4459Q145.302 28.5268 144.852 28.4763Q144.908 28.3675 144.952 28.2534C145.537 26.7461 145.483 17.2922 144.826 15.823Z"/>
	<path fill="#FC262E" d="M167.71 24.1246C170.826 23.7355 174.262 24.2643 177.419 24.2474C177.662 24.5932 177.73 24.9343 177.748 25.3468C177.837 27.4102 177.972 47.5829 177.797 47.9674C177.734 48.1046 177.468 48.3257 177.357 48.4466C174.141 48.927 170.37 48.512 167.071 48.6111C168.787 45.5513 166.431 29.0115 167.71 24.1246Z"/>
	<path fill="#FC262E" d="M128.774 37.2144C128.8 37.1811 128.826 37.1478 128.854 37.1156C129.69 36.1379 137.885 32.1508 139.058 32.0675L139.119 32.4732C139.759 33.8733 139.876 46.5338 139.302 48.0715Q139.202 48.3378 139.056 48.5819C133.648 48.2541 124.836 49.4083 120.057 48.2065C118.486 47.8114 116.914 46.9496 115.833 45.7303C115.23 45.05 114.968 44.1974 114.435 43.5049C116.825 43.1698 122.849 38.9552 124.39 39.2244C124.595 38.6061 124.761 37.9373 125.328 37.556C126.217 36.9585 127.512 36.6715 128.564 36.8796L128.774 37.2144ZM124.39 39.2244C124.632 39.6598 124.899 40.1779 125.262 40.522C126.04 41.2616 127.59 41.0418 128.6 41.0195C129.345 39.8197 129.021 38.5221 128.774 37.2144L128.564 36.8796C127.512 36.6715 126.217 36.9585 125.328 37.556C124.761 37.9373 124.595 38.6061 124.39 39.2244Z"/>
	<path fill="#FC262E" d="M161.239 20.7945L162.504 20.6218C163.239 21.1805 163.434 22.1038 163.557 23.008C163.735 24.3213 163.731 27.3218 162.981 28.4205C160.477 28.2748 157.9 28.2317 155.394 28.3479C155.91 29.8833 156.169 38.9702 155.491 40.3569C155.47 40.3987 155.448 40.4392 155.425 40.4799C158.004 40.7075 160.364 40.761 162.929 40.409C163.873 41.6891 163.639 46.2672 163.393 47.8814C163.35 48.1651 163.236 48.4401 163.099 48.6907C158.445 48.127 150.153 50.1336 146.879 45.9697C143.333 41.4607 146.432 31.5606 144.852 28.4763Q145.302 28.5268 145.748 28.4459C147.109 28.1939 160.648 21.7062 161.109 21.0146C161.157 20.9431 161.201 20.8719 161.239 20.7945Z"/>
	<path fill="#2D2B2C" d="M101.14 24.1354C101.874 23.651 102.393 23.0456 103.021 22.4426C105.243 20.3118 107.925 20.5345 110.761 20.5896C110.857 20.7249 110.945 20.8739 111.012 21.0257C111.558 22.2704 111.372 27.9349 110.871 29.2734C109.797 29.0302 108.586 28.9247 107.485 28.8653C104.944 28.7283 104.344 29.8395 102.695 31.3268C102.781 31.4977 102.854 31.6806 102.897 31.8673C103.197 33.1816 103.189 36.7755 102.483 37.8721C102.655 38.1396 102.796 38.4773 102.864 38.7877C103.22 40.4111 103.369 47.1578 102.514 48.4915C99.1139 48.3839 95.6952 48.4721 92.2941 48.5153C93.5905 46.1424 91.8472 25.5844 92.7215 20.624C94.9985 20.6341 98.8239 19.8656 100.86 20.7581C101.247 20.9276 101.531 21.1595 101.683 21.5544C102.001 22.382 101.476 23.3829 101.14 24.1354Z"/>
	<path fill="#2D2B2C" d="M115.563 20.5357C120.635 20.5573 131.459 19.6004 135.654 21.5176C137.28 22.2611 138.425 23.4458 139.048 25.1254C139.692 26.8596 139.894 30.7747 139.119 32.4732L139.058 32.0675C137.885 32.1508 129.69 36.1379 128.854 37.1156C128.826 37.1478 128.8 37.1811 128.774 37.2144L128.564 36.8796C127.512 36.6715 126.217 36.9585 125.328 37.556C124.761 37.9373 124.595 38.6061 124.39 39.2244C122.849 38.9552 116.825 43.1698 114.435 43.5049C114.845 41.5214 114.009 38.8415 114.4 36.5884C115.913 27.8819 126.18 32.2624 128.831 30.3396C129.16 30.101 129.147 29.9372 129.208 29.5634C129.043 29.1577 128.853 28.8384 128.489 28.5818C127.378 27.8011 120.698 27.8862 118.913 28.0449C117.823 28.1418 116.645 28.4756 115.548 28.6542C115.713 28.3739 115.855 28.0576 115.924 27.7385C116.271 26.1305 116.447 21.9127 115.563 20.5357Z"/>
	<path fill="#FC262E" d="M195.064 20.625C198.484 20.6182 203.308 20.1823 206.25 22.2188C206.961 22.7108 207.905 23.6519 208.063 24.5266C208.467 25.0267 208.574 25.6908 208.641 26.3126C208.94 29.0957 209.32 43.1156 207.981 44.7737C207.809 45.4524 207.179 46.0359 206.689 46.5078C203.869 49.2264 197.363 48.506 193.733 48.4339C193.923 48.6964 194.09 49.0069 194.158 49.3259C194.485 50.8551 194.646 55.0848 193.795 56.3762C193.926 56.6552 194.112 57.0115 194.152 57.3211C194.23 57.9194 194.175 58.0958 193.825 58.544C190.562 59.072 186.561 58.62 183.219 58.6402Q183.371 58.3501 183.426 58.0271C183.973 54.9544 183.54 48.5218 183.54 44.9975C183.541 37.7704 183.947 28.9045 183.483 21.8819C183.452 21.4091 183.331 21.0363 183.06 20.644L195.064 20.625ZM193.928 28.3745C194.469 29.6284 194.593 39.1886 194.025 40.6169C193.963 40.773 193.888 40.9383 193.8 41.0815C195.075 41.0739 196.666 41.2413 197.879 40.8429L198.025 40.3759C198.772 39.2589 198.683 30.5187 198.343 28.8805C198.308 28.7102 198.254 28.5409 198.192 28.3784C196.849 28.3491 195.241 28.1568 193.928 28.3745Z"/>
	<path fill="#2D2B2C" d="M124.819 51.6249C130.579 51.5077 136.317 51.7798 142.074 51.8082C147.563 51.8353 153.05 51.6207 158.537 51.6754C164.7 51.7368 171.309 52.1917 177.436 51.5135Q177.58 51.7552 177.676 52.02C178.17 53.4361 178.017 57.3973 177.385 58.7155C174.764 58.4739 172.048 58.592 169.415 58.5783L154.938 58.5512L113.937 58.5722L61.5538 58.6673Q61.562 55.2939 61.505 51.9209C67.6391 51.357 74.1915 51.7932 80.3571 51.809C95.1414 51.8468 110.046 52.2164 124.819 51.6249Z"/>
	<path fill="#2D2B2C" d="M61.2818 15.9739C61.2878 14.0716 60.8336 10.5333 61.9519 8.98989C63.3109 7.86242 69.6974 9.00779 71.6403 9.04287C72.2949 10.1686 72.4049 18.2584 72.0186 19.754Q71.9072 20.1808 71.6749 20.5557C75.1542 20.5632 82.1725 19.887 84.8196 22.5701C87.5014 25.2884 86.7809 35.2506 86.7312 39.186C86.6981 41.795 86.4801 44.7495 84.5028 46.6918C81.6883 49.4563 65.851 48.4412 61.4879 48.4675C61.81 43.7408 61.5684 38.9093 61.5336 34.1715C61.5057 30.3884 61.6921 26.4964 61.459 22.7258C61.6552 20.6073 61.5143 18.0853 61.2818 15.9739ZM71.7681 28.617C72.3203 30.0135 72.5216 39.4024 71.9465 40.7335C71.9058 40.8277 71.8574 40.9163 71.8027 41.0031C73.0673 41.0005 74.6094 41.166 75.7856 40.6519C75.9031 40.4753 76.1794 40.1642 76.2355 39.9754C76.5893 38.7847 76.5781 30.3309 76.3149 28.9263C76.2807 28.7437 76.186 28.5774 76.0736 28.4315C74.6885 28.4285 73.115 28.2769 71.7681 28.617Z"/>
	<path fill="#FC262E" d="M25.358 14.357C26.1645 14.0578 26.9656 13.67 27.8071 14.0552C28.4908 14.3681 29.0553 15.0074 29.4709 15.6171C30.5739 17.2355 31.3274 19.1327 32.3081 20.8308C34.6635 24.9089 40.3545 33.7775 41.7367 37.676C41.8239 37.9219 41.8701 38.1681 41.877 38.4288C41.375 39.2815 40.3586 39.8618 39.5183 40.351C36.5487 42.08 33.2765 43.3829 30.1884 44.8946C26.4797 46.7102 20.1089 50.4132 16.3943 51.3628C15.9169 51.4848 15.1201 51.6372 14.6848 51.3605C13.4169 50.5548 1.73134 29.9162 1.37749 28.0488C1.26314 27.4453 1.29037 26.8336 1.64989 26.3121C2.4242 25.1889 4.87551 24.3003 6.12405 23.7091Q15.782 19.1171 25.358 14.357ZM10.2223 28.4256C12.7615 32.5975 14.7925 37.0821 17.3433 41.2279C18.4055 41.3003 20.4055 41.5935 21.3337 41.0606C21.9669 40.697 22.408 39.6787 22.5807 38.9986L22.0733 38.6792L22.4378 38.5655Q22.5237 38.5311 22.6082 38.4935C23.9824 37.8804 26.0531 37.1193 26.6177 35.6012C26.9138 34.8052 26.5797 34.1798 26.2472 33.4628C26.4458 32.6905 25.9535 32.3392 26.2557 31.4863C27.1233 31.3641 27.6308 32.6259 28.5101 32.7872C28.5789 32.7999 28.6484 32.813 28.7179 32.8209C29.4457 32.9028 29.8347 30.6322 30.5674 30.0559C29.5573 29.6206 28.0277 29.6315 27.2262 29.0029C27.5355 27.2247 28.0599 25.6031 26.9367 24.0106Q26.7114 23.6887 26.4272 23.4174Q26.143 23.1461 25.811 22.9359Q25.4791 22.7257 25.1123 22.5849Q24.7455 22.444 24.3582 22.378C20.5117 21.7087 13.8282 26.7115 10.2223 28.4256ZM30.5674 30.0559C29.8347 30.6322 29.4457 32.9028 28.7179 32.8209C28.6484 32.813 28.5789 32.7999 28.5101 32.7872C27.6308 32.6259 27.1233 31.3641 26.2557 31.4863C25.9535 32.3392 26.4458 32.6905 26.2472 33.4628C26.5797 34.1798 26.9138 34.8052 26.6177 35.6012C26.0531 37.1193 23.9824 37.8804 22.6082 38.4935Q22.5237 38.5311 22.4378 38.5655L22.0733 38.6792L22.5807 38.9986C22.408 39.6787 21.9669 40.697 21.3337 41.0606C20.4055 41.5935 18.4055 41.3003 17.3433 41.2279L19.3577 45.1054C23.0604 42.9461 27.9924 41.0565 31.0552 38.088C32.0739 37.1007 32.8421 35.8649 32.8564 34.4099C32.8749 32.5324 31.8005 31.3121 30.5674 30.0559Z"/>
	<path fill="#FC262E" d="M20.7397 27.2593C21.2427 27.227 22.0882 27.5234 22.4652 27.8653C22.864 28.227 22.8317 28.4437 22.8614 28.9491C22.2449 30.4678 20.9501 31.1348 19.6038 31.9074L19.3297 31.9047C18.8392 31.6183 18.2894 31.3103 18.0528 30.7652C17.8338 30.2608 17.8372 29.75 18.037 29.2522C18.5284 28.0279 19.6155 27.741 20.7397 27.2593Z"/>
	<path fill="#FC262E" d="M20.9442 35.3411C22.6911 34.0535 24.0343 33.331 26.2472 33.4628C26.5797 34.1798 26.9138 34.8052 26.6177 35.6012C26.0531 37.1193 23.9824 37.8804 22.6082 38.4935Q22.5237 38.5311 22.4378 38.5655C22.1154 37.4651 21.4536 36.3709 20.9442 35.3411Z"/>
	<path fill="#2D2B2C" d="M5.22138 22.4371C5.02567 22.4542 4.82356 22.2988 4.65814 22.2015Q4.59463 21.9858 4.55097 21.7653C4.21655 20.0052 4.31569 11.7805 5.2294 10.4869C5.79266 9.68951 6.98572 9.33196 7.90105 9.1803C12.7873 8.37074 22.1354 9.23021 27.5401 9.2012C36.0747 9.15539 44.8128 8.24845 53.3276 8.83584C54.4579 8.91381 55.4214 9.11224 56.3504 9.78534C57.0722 10.3083 57.8062 11.135 58.0306 12.0173C58.5846 14.1968 58.2678 16.9242 58.2434 19.1714C58.1762 25.3467 57.5665 33.7772 58.5014 39.6971L36.2144 51.3618C32.1129 53.5245 27.9894 55.9844 23.7478 57.8502C22.9691 58.1927 22.1445 58.4733 21.2948 58.5639C19.1762 58.7896 7.96595 58.8799 6.43299 58.2737C5.69954 57.9837 5.31271 57.3707 5.0189 56.6773C4.36025 55.1229 4.17339 41.6409 4.78263 40.1336C5.15224 40.0919 5.91276 41.4839 6.15484 41.8485C8.53404 45.4319 12.3288 52.2242 15.5326 54.7096C15.996 54.7612 16.4213 54.7195 16.8694 54.5969C20.8588 53.5054 34.1822 45.064 38.5901 42.4898C40.2498 41.5206 42.0621 40.7717 43.6444 39.6756C44.4086 39.1462 45.0005 38.561 45.4567 37.7492C45.5487 37.5855 45.447 37.2155 45.3963 37.0403C44.9364 35.4489 31.4632 15.5657 29.4569 12.9418C28.875 12.1808 28.1621 11.2696 27.3098 10.8131C26.5642 10.4138 25.9473 10.5737 25.1915 10.8053C25.6201 11.1953 25.7418 11.2388 25.8179 11.8126C25.2864 12.3341 24.4979 12.4821 23.8031 12.6842L23.8174 12.7267L24.722 13.0489L24.4529 13.2325C24.465 13.2401 24.4773 13.2476 24.4893 13.2553C24.9351 13.5407 25.1208 13.8957 25.358 14.357Q15.782 19.1172 6.12405 23.7091C5.7107 23.4816 5.30501 23.2962 4.86202 23.1338L5.22138 22.4371ZM5.22138 22.4371L4.86202 23.1338C5.30501 23.2962 5.7107 23.4816 6.12405 23.7091Q15.782 19.1171 25.358 14.357C25.1208 13.8957 24.9351 13.5407 24.4893 13.2553C24.4773 13.2476 24.465 13.2401 24.4529 13.2325L24.722 13.0489L23.8174 12.7267L23.8031 12.6842C24.4979 12.4821 25.2864 12.3341 25.8179 11.8126C25.7418 11.2388 25.6201 11.1953 25.1915 10.8053L12.2857 18.2627C10.3495 19.3658 6.76926 20.9402 5.22138 22.4371Z"/>
</svg>
